<svg width="163" height="47" viewBox="0 0 163 47" fill="none" xmlns="http://www.w3.org/2000/svg">
<mask id="mask0_355_89" style="mask-type:alpha" maskUnits="userSpaceOnUse" x="42" y="9" width="51" height="30">
<rect x="42.5665" y="9" width="49.825" height="29.3611" fill="#D9D9D9"/>
</mask>
<g mask="url(#mask0_355_89)">
<path d="M42.5665 35.3161V11.2638H59.171V15.4565H47.8687V21.1877H58.069V25.3804H47.8687V35.3161H42.5665Z" fill="#060606"/>
<path d="M62.6395 35.3161V17.2769H67.856V35.3161H62.6395ZM65.26 14.9515C64.4844 14.9515 63.8191 14.7049 63.264 14.2116C62.7171 13.7105 62.4436 13.1116 62.4436 12.4147C62.4436 11.7257 62.7171 11.1346 63.264 10.6413C63.8191 10.1403 64.4844 9.88971 65.26 9.88971C66.0355 9.88971 66.6968 10.1403 67.2437 10.6413C67.7988 11.1346 68.0764 11.7257 68.0764 12.4147C68.0764 13.1116 67.7988 13.7105 67.2437 14.2116C66.6968 14.7049 66.0355 14.9515 65.26 14.9515Z" fill="#060606"/>
<path d="M77.2511 24.8872V35.3161H72.0346V17.2769H77.0062V20.4596H77.2266C77.643 19.4104 78.3409 18.5805 79.3206 17.9698C80.3002 17.3513 81.488 17.042 82.8839 17.042C84.1901 17.042 85.3289 17.316 86.3003 17.8641C87.2718 18.4122 88.0269 19.1951 88.5657 20.2129C89.1045 21.223 89.3739 22.4287 89.3739 23.8302V35.3161H84.1574V24.7228C84.1656 23.6188 83.8717 22.7575 83.2758 22.139C82.6798 21.5126 81.8594 21.1995 80.8145 21.1995C80.1124 21.1995 79.492 21.3443 78.9532 21.634C78.4226 21.9237 78.0062 22.3465 77.7042 22.9024C77.4103 23.4505 77.2593 24.112 77.2511 24.8872Z" fill="#060606"/>
<path d="M94.1483 35.3161L94.1465 17.2769H97.1833L97.0262 31.0882H97.2221L105.461 17.2769H108.547L111.881 31.0412H111.893L116.776 17.2769H119.812L112.713 35.3161H109.872L106.392 21.4578H106.098L97.1534 35.3161H94.1483Z" fill="#060606"/>
<path d="M117.405 35.3161L123.633 17.2769H126.523L120.295 35.3161H117.405ZM125.96 14.2234C125.396 14.2234 124.911 14.0394 124.502 13.6714C124.102 13.3034 123.902 12.861 123.902 12.3443C123.902 11.8275 124.102 11.3851 124.502 11.0172C124.911 10.6492 125.396 10.4652 125.96 10.4652C126.523 10.4652 127.004 10.6492 127.404 11.0172C127.813 11.3851 128.017 11.8275 128.017 12.3443C128.017 12.861 127.813 13.3034 127.404 13.6714C127.004 14.0394 126.523 14.2234 125.96 14.2234Z" fill="#060606"/>
<path d="M142.023 21.3169L139.28 22.0216C139.182 21.5988 139.011 21.1916 138.766 20.8002C138.529 20.4009 138.162 20.0759 137.664 19.8254C137.174 19.567 136.504 19.4378 135.655 19.4378C134.504 19.4378 133.504 19.6923 132.655 20.2012C131.806 20.7023 131.321 21.3404 131.198 22.1155C131.076 22.7967 131.239 23.3408 131.688 23.748C132.137 24.1551 132.888 24.4879 133.941 24.7462L136.635 25.4039C138.251 25.8032 139.403 26.4022 140.088 27.2008C140.782 27.9916 141.019 29.0212 140.798 30.2895C140.619 31.323 140.149 32.2469 139.39 33.0612C138.631 33.8755 137.66 34.5175 136.476 34.9873C135.292 35.457 133.974 35.6919 132.521 35.6919C130.586 35.6919 129.059 35.2926 127.941 34.494C126.823 33.6876 126.523 32.427 126.523 32.427L128.673 30.7984C129.114 31.6881 129.476 32.0277 130.121 32.521C130.774 33.0064 131.688 33.2491 132.864 33.2491C134.211 33.2491 135.333 32.9751 136.231 32.427C137.129 31.8711 137.639 31.2056 137.762 30.4305C137.884 29.7963 137.753 29.2678 137.37 28.845C136.994 28.4222 136.341 28.1051 135.411 27.8937L132.423 27.1891C130.757 26.7897 129.59 26.179 128.921 25.3569C128.259 24.5348 128.039 23.5013 128.259 22.2564C128.439 21.2386 128.896 20.3382 129.631 19.5553C130.374 18.7723 131.304 18.1577 132.423 17.7114C133.549 17.2651 134.774 17.042 136.096 17.042C137.958 17.042 139.349 17.4335 140.272 18.2164C141.194 18.9915 141.778 20.025 142.023 21.3169Z" fill="#060606"/>
<path d="M152.104 35.6919C150.3 35.6919 148.81 35.3083 147.634 34.541C146.459 33.7659 145.638 32.6854 145.173 31.2996C144.708 29.9059 144.634 28.2852 144.953 26.4374C145.271 24.5896 145.904 22.9611 146.851 21.5518C147.798 20.1346 148.977 19.0307 150.39 18.2399C151.802 17.4413 153.353 17.042 155.043 17.042C156.022 17.042 156.965 17.1986 157.871 17.5118C158.778 17.8249 159.561 18.3339 160.222 19.0385C160.884 19.7353 161.345 20.6592 161.606 21.8102C161.867 22.9611 161.851 24.3782 161.557 26.0616L161.361 27.236H146.863L147.255 24.8402H158.814C159.002 23.8224 158.953 22.9141 158.667 22.1155C158.39 21.3169 157.904 20.6866 157.21 20.2247C156.524 19.7627 155.655 19.5318 154.602 19.5318C153.516 19.5318 152.504 19.8136 151.565 20.3774C150.626 20.9333 149.843 21.6379 149.214 22.4913C148.585 23.3369 148.194 24.1982 148.038 25.0751L147.696 27.1421C147.451 28.6375 147.487 29.8276 147.806 30.7123C148.132 31.5971 148.7 32.2352 149.508 32.6267C150.316 33.0103 151.328 33.2021 152.545 33.2021C153.32 33.2021 154.035 33.1003 154.688 32.8968C155.341 32.6854 155.924 32.3722 156.439 31.9572C156.953 31.5344 157.386 31.0099 157.737 30.3835L160.382 31.1351C159.933 32.0434 159.3 32.842 158.484 33.531C157.675 34.2121 156.728 34.7445 155.643 35.1282C154.565 35.504 153.386 35.6919 152.104 35.6919Z" fill="#060606"/>
</g>
<mask id="mask1_355_89" style="mask-type:alpha" maskUnits="userSpaceOnUse" x="92" y="9" width="71" height="30">
<rect x="92.3914" y="9" width="70.2888" height="29.3611" fill="#A180FC"/>
</mask>
<g mask="url(#mask1_355_89)">
<path d="M42.5665 35.3161V11.2638H59.171V15.4565H47.8687V21.1877H58.069V25.3804H47.8687V35.3161H42.5665Z" fill="#060606"/>
<path d="M62.6395 35.3161V17.2769H67.856V35.3161H62.6395ZM65.26 14.9515C64.4844 14.9515 63.8191 14.7049 63.264 14.2116C62.7171 13.7105 62.4436 13.1116 62.4436 12.4147C62.4436 11.7257 62.7171 11.1346 63.264 10.6413C63.8191 10.1403 64.4844 9.88971 65.26 9.88971C66.0355 9.88971 66.6968 10.1403 67.2437 10.6413C67.7988 11.1346 68.0764 11.7257 68.0764 12.4147C68.0764 13.1116 67.7988 13.7105 67.2437 14.2116C66.6968 14.7049 66.0355 14.9515 65.26 14.9515Z" fill="#060606"/>
<path d="M77.2511 24.8872V35.3161H72.0346V17.2769H77.0062V20.4596H77.2266C77.643 19.4104 78.3409 18.5805 79.3206 17.9698C80.3002 17.3513 81.488 17.042 82.8839 17.042C84.1901 17.042 85.3289 17.316 86.3003 17.8641C87.2718 18.4122 88.0269 19.1951 88.5657 20.2129C89.1045 21.223 89.3739 22.4287 89.3739 23.8302V35.3161H84.1574V24.7228C84.1656 23.6188 83.8717 22.7575 83.2758 22.139C82.6798 21.5126 81.8594 21.1995 80.8145 21.1995C80.1124 21.1995 79.492 21.3443 78.9532 21.634C78.4226 21.9237 78.0062 22.3465 77.7042 22.9024C77.4103 23.4505 77.2593 24.112 77.2511 24.8872Z" fill="#060606"/>
<path d="M94.1483 35.3161L94.1465 17.2769H97.1833L97.0262 31.0882H97.2221L105.461 17.2769H108.547L111.881 31.0412H111.893L116.776 17.2769H119.812L112.713 35.3161H109.872L106.392 21.4578H106.098L97.1534 35.3161H94.1483Z" fill="#060606"/>
<path d="M117.405 35.3161L123.633 17.2769H126.523L120.295 35.3161H117.405ZM125.96 14.2234C125.396 14.2234 124.911 14.0394 124.502 13.6714C124.102 13.3034 123.902 12.861 123.902 12.3443C123.902 11.8275 124.102 11.3851 124.502 11.0172C124.911 10.6492 125.396 10.4652 125.96 10.4652C126.523 10.4652 127.004 10.6492 127.404 11.0172C127.813 11.3851 128.017 11.8275 128.017 12.3443C128.017 12.861 127.813 13.3034 127.404 13.6714C127.004 14.0394 126.523 14.2234 125.96 14.2234Z" fill="#060606"/>
<path d="M142.023 21.3169L139.28 22.0216C139.182 21.5988 139.011 21.1916 138.766 20.8002C138.529 20.4009 138.162 20.0759 137.664 19.8254C137.174 19.567 136.504 19.4378 135.655 19.4378C134.504 19.4378 133.504 19.6923 132.655 20.2012C131.806 20.7023 131.321 21.3404 131.198 22.1155C131.076 22.7967 131.239 23.3408 131.688 23.748C132.137 24.1551 132.888 24.4879 133.941 24.7462L136.635 25.4039C138.251 25.8032 139.403 26.4022 140.088 27.2008C140.782 27.9916 141.019 29.0212 140.798 30.2895C140.619 31.323 140.149 32.2469 139.39 33.0612C138.631 33.8755 137.66 34.5175 136.476 34.9873C135.292 35.457 133.974 35.6919 132.521 35.6919C130.586 35.6919 129.059 35.2926 127.941 34.494C126.823 33.6876 126.523 32.427 126.523 32.427L128.673 30.7984C129.114 31.6881 129.476 32.0277 130.121 32.521C130.774 33.0064 131.688 33.2491 132.864 33.2491C134.211 33.2491 135.333 32.9751 136.231 32.427C137.129 31.8711 137.639 31.2056 137.762 30.4305C137.884 29.7963 137.753 29.2678 137.37 28.845C136.994 28.4222 136.341 28.1051 135.411 27.8937L132.423 27.1891C130.757 26.7897 129.59 26.179 128.921 25.3569C128.259 24.5348 128.039 23.5013 128.259 22.2564C128.439 21.2386 128.896 20.3382 129.631 19.5553C130.374 18.7723 131.304 18.1577 132.423 17.7114C133.549 17.2651 134.774 17.042 136.096 17.042C137.958 17.042 139.349 17.4335 140.272 18.2164C141.194 18.9915 141.778 20.025 142.023 21.3169Z" fill="#060606"/>
<path d="M152.104 35.6919C150.3 35.6919 148.81 35.3083 147.634 34.541C146.459 33.7659 145.638 32.6854 145.173 31.2996C144.708 29.9059 144.634 28.2852 144.953 26.4374C145.271 24.5896 145.904 22.9611 146.851 21.5518C147.798 20.1346 148.977 19.0307 150.39 18.2399C151.802 17.4413 153.353 17.042 155.043 17.042C156.022 17.042 156.965 17.1986 157.871 17.5118C158.778 17.8249 159.561 18.3339 160.222 19.0385C160.884 19.7353 161.345 20.6592 161.606 21.8102C161.867 22.9611 161.851 24.3782 161.557 26.0616L161.361 27.236H146.863L147.255 24.8402H158.814C159.002 23.8224 158.953 22.9141 158.667 22.1155C158.39 21.3169 157.904 20.6866 157.21 20.2247C156.524 19.7627 155.655 19.5318 154.602 19.5318C153.516 19.5318 152.504 19.8136 151.565 20.3774C150.626 20.9333 149.843 21.6379 149.214 22.4913C148.585 23.3369 148.194 24.1982 148.038 25.0751L147.696 27.1421C147.451 28.6375 147.487 29.8276 147.806 30.7123C148.132 31.5971 148.7 32.2352 149.508 32.6267C150.316 33.0103 151.328 33.2021 152.545 33.2021C153.32 33.2021 154.035 33.1003 154.688 32.8968C155.341 32.6854 155.924 32.3722 156.439 31.9572C156.953 31.5344 157.386 31.0099 157.737 30.3835L160.382 31.1351C159.933 32.0434 159.3 32.842 158.484 33.531C157.675 34.2121 156.728 34.7445 155.643 35.1282C154.565 35.504 153.386 35.6919 152.104 35.6919Z" fill="#060606"/>
</g>
<path opacity="0.3" fill-rule="evenodd" clip-rule="evenodd" d="M31.96 4.70001C23.7281 11.271 2.09314 14.2135 0 22.373V35.2442C0 38.7283 1.14331 41.6166 4.29182 44.18C0.281431 31.0922 30.8695 33.1321 31.96 21.9939V4.70001Z" fill="url(#paint0_linear_355_89)"/>
<path opacity="0.5" fill-rule="evenodd" clip-rule="evenodd" d="M23.7016 8.2162L23.6612 0C13.3448 7.22281 0.908493 8.50594 0 22.0203V36.7763C0 38.7631 0.32302 40.5843 1.09019 42.2607C0.928682 26.2215 23.8227 32.6165 23.7419 17.4258L23.7016 8.2162Z" fill="url(#paint1_linear_355_89)"/>
<path fill-rule="evenodd" clip-rule="evenodd" d="M0.262454 39.653C0.262454 39.6944 0.282642 39.7358 0.282642 39.7979ZM0.242265 39.4668C0.242265 39.5082 0.262454 39.5702 0.262454 39.6116ZM0.141321 38.9494C0.141321 39.0115 0.16151 39.0529 0.16151 39.1149ZM0.0807549 38.4113C0.0807549 38.4734 0.100944 38.5148 0.100944 38.5769ZM0.0201887 37.7076C0.0201887 37.7697 0.0201887 37.8111 0.0201887 37.8732ZM0.0201887 37.5007C0.0201887 37.5628 0.0201887 37.6042 0.0201887 37.6662ZM0 37.3351C0 37.3972 0 37.4386 0 37.5007ZM0 37.1488C0 37.2109 0 37.2523 0 37.3144ZM0 22.0203V36.7763C0 36.8384 0 36.9005 0 36.9626C0 37.0247 0 37.0661 0 37.1282V37.1488V37.1695C0 37.2316 0 37.273 0 37.3351V37.3558C0 37.4179 0 37.4593 0 37.5214C0 37.5835 0 37.6249 0 37.6869V37.7076V37.8732C0 37.9974 0.0201887 38.1009 0.0201887 38.225V38.2457L0.0403775 38.3906C0.0403775 38.4527 0.0605662 38.4941 0.0605662 38.5562V38.5769V38.5975L0.0807549 38.7424V38.7631V38.7838C0.0807549 38.8459 0.100944 38.8873 0.100944 38.9494C0.100944 39.0115 0.121132 39.0529 0.121132 39.1149V39.1356C0.121132 39.1977 0.141321 39.2391 0.141321 39.3012V39.3219C0.141321 39.384 0.16151 39.4254 0.16151 39.4875V39.5082C0.16151 39.5496 0.181699 39.6116 0.181699 39.653V39.6737V39.6944C0.181699 39.7358 0.201887 39.7772 0.201887 39.8393V39.86L0.242265 40.0049V40.0256V40.0462C0.262454 40.0876 0.262454 40.1497 0.282642 40.1911V40.2118C0.302831 40.2739 0.302831 40.3153 0.32302 40.3774V40.3981C0.343208 40.4602 0.343208 40.5016 0.363397 40.5636C0.383586 40.605 0.383586 40.6671 0.403775 40.7085V40.7292C0.423963 40.7706 0.423963 40.8327 0.444152 40.8741V40.8948C0.464341 40.9362 0.464341 40.9983 0.48453 41.0396V41.0603C0.504718 41.1017 0.524907 41.1638 0.524907 41.2052C0.545096 41.2466 0.565285 41.3087 0.585473 41.3501V41.3708C0.605662 41.4122 0.625851 41.4743 0.646039 41.5156V41.5363C0.666228 41.5777 0.686417 41.6398 0.706606 41.6812L0.726794 41.7226C0.746983 41.764 0.767172 41.8054 0.787361 41.8468L0.807549 41.8675L0.868116 41.9916L0.888304 42.033L0.94887 42.1572L0.969059 42.1986L1.00944 42.3021C0.928682 26.2215 23.8227 32.6165 23.7419 17.4258L23.7016 8.21622C13.3044 12.1691 1.6151 15.7495 0 22.0203Z" fill="url(#paint2_linear_355_89)"/>
<defs>
<linearGradient id="paint0_linear_355_89" x1="-30.5" y1="44.1279" x2="32" y2="5.12791" gradientUnits="userSpaceOnUse">
<stop stop-color="#6549D5"/>
<stop offset="0.505208" stop-color="#FB5343"/>
<stop offset="1" stop-color="#059DFF"/>
</linearGradient>
<linearGradient id="paint1_linear_355_89" x1="2.19332e-06" y1="21.4657" x2="47" y2="-18.3721" gradientUnits="userSpaceOnUse">
<stop stop-color="#6549D5"/>
<stop offset="0.505208" stop-color="#FB5343"/>
<stop offset="1" stop-color="#059DFF"/>
</linearGradient>
<linearGradient id="paint2_linear_355_89" x1="-5.18832e-06" y1="25.5297" x2="48" y2="-6.87211" gradientUnits="userSpaceOnUse">
<stop stop-color="#6549D5"/>
<stop offset="0.505208" stop-color="#FB5343"/>
<stop offset="1" stop-color="#059DFF"/>
</linearGradient>
</defs>
</svg>
