<svg width="162" height="47" viewBox="0 0 162 47" fill="none" xmlns="http://www.w3.org/2000/svg">
<mask id="mask0_693_3590" style="mask-type:alpha" maskUnits="userSpaceOnUse" x="41" y="5" width="51" height="30">
<rect x="41.5664" y="5.46442" width="49.825" height="29.3611" fill="#D9D9D9"/>
</mask>
<g mask="url(#mask0_693_3590)">
<path d="M41.5664 31.7805V7.72821H58.1709V11.9209H46.8686V17.6521H57.0689V21.8448H46.8686V31.7805H41.5664Z" fill="white"/>
<path d="M61.6394 31.7805V13.7413H66.8558V31.7805H61.6394ZM64.2599 11.4159C63.4843 11.4159 62.819 11.1693 62.2639 10.676C61.7169 10.1749 61.4435 9.57598 61.4435 8.87915C61.4435 8.19015 61.7169 7.59902 62.2639 7.10576C62.819 6.60467 63.4843 6.35413 64.2599 6.35413C65.0354 6.35413 65.6966 6.60467 66.2436 7.10576C66.7987 7.59902 67.0763 8.19015 67.0763 8.87915C67.0763 9.57598 66.7987 10.1749 66.2436 10.676C65.6966 11.1693 65.0354 11.4159 64.2599 11.4159Z" fill="white"/>
<path d="M76.251 21.3516V31.7805H71.0345V13.7413H76.0061V16.924H76.2265C76.6428 15.8748 77.3408 15.0449 78.3204 14.4342C79.3001 13.8157 80.4878 13.5064 81.8838 13.5064C83.1899 13.5064 84.3288 13.7804 85.3002 14.3285C86.2717 14.8766 87.0268 15.6595 87.5656 16.6774C88.1044 17.6874 88.3738 18.8931 88.3738 20.2946V31.7805H83.1573V21.1872C83.1655 20.0832 82.8716 19.222 82.2756 18.6034C81.6797 17.9771 80.8593 17.6639 79.8143 17.6639C79.1123 17.6639 78.4919 17.8087 77.9531 18.0984C77.4224 18.3881 77.0061 18.8109 76.7041 19.3668C76.4102 19.9149 76.2591 20.5765 76.251 21.3516Z" fill="white"/>
<path d="M93.1482 31.7805L93.1463 13.7413H96.1831L96.0261 27.5526H96.222L104.461 13.7413H107.547L110.88 27.5056H110.893L115.775 13.7413H118.812L111.713 31.7805H108.872L105.392 17.9223H105.098L96.1533 31.7805H93.1482Z" fill="white"/>
<path d="M116.405 31.7805L122.633 13.7413H125.523L119.294 31.7805H116.405ZM124.959 10.6878C124.396 10.6878 123.91 10.5038 123.502 10.1358C123.102 9.7678 122.902 9.32543 122.902 8.80868C122.902 8.29193 123.102 7.84957 123.502 7.48158C123.91 7.11359 124.396 6.9296 124.959 6.9296C125.523 6.9296 126.004 7.11359 126.404 7.48158C126.813 7.84957 127.017 8.29193 127.017 8.80868C127.017 9.32543 126.813 9.7678 126.404 10.1358C126.004 10.5038 125.523 10.6878 124.959 10.6878Z" fill="white"/>
<path d="M141.023 17.7813L138.28 18.486C138.182 18.0632 138.011 17.656 137.766 17.2646C137.529 16.8653 137.162 16.5403 136.664 16.2898C136.174 16.0314 135.504 15.9022 134.655 15.9022C133.504 15.9022 132.504 16.1567 131.655 16.6656C130.806 17.1667 130.321 17.8048 130.198 18.5799C130.076 19.2611 130.239 19.8053 130.688 20.2124C131.137 20.6195 131.888 20.9523 132.941 21.2107L135.635 21.8683C137.251 22.2676 138.402 22.8666 139.088 23.6652C139.782 24.456 140.019 25.4856 139.798 26.754C139.619 27.7875 139.149 28.7113 138.39 29.5256C137.631 30.3399 136.659 30.9819 135.476 31.4517C134.292 31.9214 132.974 32.1563 131.521 32.1563C129.586 32.1563 128.059 31.757 126.941 30.9584C125.822 30.152 125.523 28.8914 125.523 28.8914L127.673 27.2628C128.114 28.1525 128.476 28.4921 129.12 28.9854C129.774 29.4708 130.688 29.7135 131.863 29.7135C133.21 29.7135 134.333 29.4395 135.231 28.8914C136.129 28.3355 136.639 27.67 136.762 26.8949C136.884 26.2607 136.753 25.7322 136.37 25.3094C135.994 24.8866 135.341 24.5695 134.41 24.3581L131.423 23.6535C129.757 23.2542 128.59 22.6435 127.92 21.8214C127.259 20.9993 127.039 19.9658 127.259 18.7209C127.439 17.703 127.896 16.8026 128.631 16.0197C129.374 15.2367 130.304 14.6221 131.423 14.1758C132.549 13.7295 133.774 13.5064 135.096 13.5064C136.957 13.5064 138.349 13.8979 139.272 14.6808C140.194 15.456 140.778 16.4895 141.023 17.7813Z" fill="white"/>
<path d="M151.104 32.1563C149.3 32.1563 147.81 31.7727 146.634 31.0054C145.459 30.2303 144.638 29.1498 144.173 27.764C143.708 26.3703 143.634 24.7496 143.953 22.9018C144.271 21.0541 144.904 19.4255 145.851 18.0162C146.798 16.5991 147.977 15.4951 149.389 14.7043C150.802 13.9057 152.353 13.5064 154.043 13.5064C155.022 13.5064 155.965 13.663 156.871 13.9762C157.777 14.2894 158.561 14.7983 159.222 15.5029C159.884 16.1998 160.345 17.1236 160.606 18.2746C160.867 19.4255 160.851 20.8427 160.557 22.526L160.361 23.7004H145.863L146.255 21.3046H157.814C158.002 20.2868 157.953 19.3785 157.667 18.5799C157.39 17.7813 156.904 17.151 156.21 16.6891C155.524 16.2272 154.655 15.9962 153.602 15.9962C152.516 15.9962 151.504 16.2781 150.565 16.8418C149.626 17.3977 148.842 18.1023 148.214 18.9558C147.585 19.8013 147.193 20.6626 147.038 21.5395L146.695 23.6065C146.451 25.1019 146.487 26.292 146.806 27.1768C147.132 28.0615 147.7 28.6996 148.508 29.0911C149.316 29.4747 150.328 29.6665 151.545 29.6665C152.32 29.6665 153.034 29.5648 153.687 29.3612C154.341 29.1498 154.924 28.8366 155.439 28.4216C155.953 27.9989 156.386 27.4743 156.737 26.8479L159.381 27.5995C158.933 28.5078 158.3 29.3064 157.483 29.9954C156.675 30.6766 155.728 31.209 154.643 31.5926C153.565 31.9684 152.385 32.1563 151.104 32.1563Z" fill="white"/>
</g>
<mask id="mask1_693_3590" style="mask-type:alpha" maskUnits="userSpaceOnUse" x="91" y="5" width="71" height="30">
<rect x="91.3906" y="5.46442" width="70.2888" height="29.3611" fill="#A180FC"/>
</mask>
<g mask="url(#mask1_693_3590)">
<path d="M41.5654 31.7805V7.72821H58.1699V11.9209H46.8676V17.6521H57.0679V21.8448H46.8676V31.7805H41.5654Z" fill="white"/>
<path d="M61.6384 31.7805V13.7413H66.8549V31.7805H61.6384ZM64.2589 11.4159C63.4834 11.4159 62.818 11.1693 62.2629 10.676C61.716 10.1749 61.4425 9.57598 61.4425 8.87915C61.4425 8.19015 61.716 7.59902 62.2629 7.10576C62.818 6.60467 63.4834 6.35413 64.2589 6.35413C65.0344 6.35413 65.6957 6.60467 66.2426 7.10576C66.7977 7.59902 67.0753 8.19015 67.0753 8.87915C67.0753 9.57598 66.7977 10.1749 66.2426 10.676C65.6957 11.1693 65.0344 11.4159 64.2589 11.4159Z" fill="white"/>
<path d="M76.25 21.3516V31.7805H71.0335V13.7413H76.0051V16.924H76.2255C76.6419 15.8748 77.3398 15.0449 78.3195 14.4342C79.2991 13.8157 80.4869 13.5064 81.8828 13.5064C83.189 13.5064 84.3278 13.7804 85.2992 14.3285C86.2707 14.8766 87.0258 15.6595 87.5646 16.6774C88.1034 17.6874 88.3728 18.8931 88.3728 20.2946V31.7805H83.1563V21.1872C83.1645 20.0832 82.8706 19.222 82.2747 18.6034C81.6787 17.9771 80.8583 17.6639 79.8134 17.6639C79.1113 17.6639 78.4909 17.8087 77.9521 18.0984C77.4215 18.3881 77.0051 18.8109 76.7031 19.3668C76.4092 19.9149 76.2582 20.5765 76.25 21.3516Z" fill="white"/>
<path d="M93.1472 31.7805L93.1454 13.7413H96.1822L96.0251 27.5526H96.221L104.46 13.7413H107.546L110.879 27.5056H110.892L115.775 13.7413H118.811L111.712 31.7805H108.871L105.391 17.9223H105.097L96.1523 31.7805H93.1472Z" fill="white"/>
<path d="M116.404 31.7805L122.632 13.7413H125.522L119.293 31.7805H116.404ZM124.958 10.6878C124.395 10.6878 123.909 10.5038 123.501 10.1358C123.101 9.7678 122.901 9.32543 122.901 8.80868C122.901 8.29193 123.101 7.84957 123.501 7.48158C123.909 7.11359 124.395 6.9296 124.958 6.9296C125.522 6.9296 126.003 7.11359 126.403 7.48158C126.812 7.84957 127.016 8.29193 127.016 8.80868C127.016 9.32543 126.812 9.7678 126.403 10.1358C126.003 10.5038 125.522 10.6878 124.958 10.6878Z" fill="white"/>
<path d="M141.022 17.7813L138.279 18.486C138.181 18.0632 138.01 17.656 137.765 17.2646C137.528 16.8653 137.161 16.5403 136.663 16.2898C136.173 16.0314 135.503 15.9022 134.654 15.9022C133.503 15.9022 132.503 16.1567 131.654 16.6656C130.805 17.1667 130.32 17.8048 130.197 18.5799C130.075 19.2611 130.238 19.8053 130.687 20.2124C131.136 20.6195 131.887 20.9523 132.94 21.2107L135.634 21.8683C137.25 22.2676 138.401 22.8666 139.087 23.6652C139.781 24.456 140.018 25.4856 139.797 26.754C139.618 27.7875 139.148 28.7113 138.389 29.5256C137.63 30.3399 136.659 30.9819 135.475 31.4517C134.291 31.9214 132.973 32.1563 131.52 32.1563C129.585 32.1563 128.058 31.757 126.94 30.9584C125.821 30.152 125.522 28.8914 125.522 28.8914L127.672 27.2628C128.113 28.1525 128.475 28.4921 129.12 28.9854C129.773 29.4708 130.687 29.7135 131.862 29.7135C133.209 29.7135 134.332 29.4395 135.23 28.8914C136.128 28.3355 136.638 27.67 136.761 26.8949C136.883 26.2607 136.752 25.7322 136.369 25.3094C135.993 24.8866 135.34 24.5695 134.409 24.3581L131.422 23.6535C129.756 23.2542 128.589 22.6435 127.92 21.8214C127.258 20.9993 127.038 19.9658 127.258 18.7209C127.438 17.703 127.895 16.8026 128.63 16.0197C129.373 15.2367 130.303 14.6221 131.422 14.1758C132.548 13.7295 133.773 13.5064 135.095 13.5064C136.956 13.5064 138.348 13.8979 139.271 14.6808C140.193 15.456 140.777 16.4895 141.022 17.7813Z" fill="white"/>
<path d="M151.103 32.1563C149.299 32.1563 147.809 31.7727 146.633 31.0054C145.458 30.2303 144.637 29.1498 144.172 27.764C143.707 26.3703 143.633 24.7496 143.952 22.9018C144.27 21.0541 144.903 19.4255 145.85 18.0162C146.797 16.5991 147.976 15.4951 149.388 14.7043C150.801 13.9057 152.352 13.5064 154.042 13.5064C155.021 13.5064 155.964 13.663 156.87 13.9762C157.776 14.2894 158.56 14.7983 159.221 15.5029C159.883 16.1998 160.344 17.1236 160.605 18.2746C160.866 19.4255 160.85 20.8427 160.556 22.526L160.36 23.7004H145.862L146.254 21.3046H157.813C158.001 20.2868 157.952 19.3785 157.666 18.5799C157.389 17.7813 156.903 17.151 156.209 16.6891C155.523 16.2272 154.654 15.9962 153.601 15.9962C152.515 15.9962 151.503 16.2781 150.564 16.8418C149.625 17.3977 148.841 18.1023 148.213 18.9558C147.584 19.8013 147.192 20.6626 147.037 21.5395L146.694 23.6065C146.45 25.1019 146.486 26.292 146.805 27.1768C147.131 28.0615 147.699 28.6996 148.507 29.0911C149.315 29.4747 150.327 29.6665 151.544 29.6665C152.319 29.6665 153.033 29.5648 153.687 29.3612C154.34 29.1498 154.923 28.8366 155.438 28.4216C155.952 27.9989 156.385 27.4743 156.736 26.8479L159.381 27.5995C158.932 28.5078 158.299 29.3064 157.483 29.9954C156.674 30.6766 155.727 31.209 154.642 31.5926C153.564 31.9684 152.384 32.1563 151.103 32.1563Z" fill="white"/>
</g>
<path opacity="0.3" fill-rule="evenodd" clip-rule="evenodd" d="M31.96 4.69998C23.7281 11.271 2.09314 14.2135 0 22.373V35.2442C0 38.7282 1.14331 41.6166 4.29182 44.18C0.281431 31.0922 30.8695 33.1321 31.96 21.9939V4.69998Z" fill="white"/>
<path opacity="0.5" fill-rule="evenodd" clip-rule="evenodd" d="M23.7016 8.21617L23.6612 -3.05176e-05C13.3448 7.22278 0.908493 8.50591 0 22.0202V36.7763C0 38.7631 0.32302 40.5843 1.09019 42.2606C0.928682 26.2215 23.8227 32.6164 23.7419 17.4258L23.7016 8.21617Z" fill="white"/>
<path fill-rule="evenodd" clip-rule="evenodd" d="M0.262454 39.653C0.262454 39.6944 0.282642 39.7358 0.282642 39.7979L0.262454 39.653ZM0.242265 39.4667C0.242265 39.5081 0.262454 39.5702 0.262454 39.6116L0.242265 39.4667ZM0.141321 38.9493C0.141321 39.0114 0.16151 39.0528 0.16151 39.1149L0.141321 38.9493ZM0.0807549 38.4113C0.0807549 38.4733 0.100944 38.5147 0.100944 38.5768L0.0807549 38.4113ZM0.0201887 37.7076C0.0201887 37.7697 0.0201887 37.8111 0.0201887 37.8732V37.7076ZM0.0201887 37.5006C0.0201887 37.5627 0.0201887 37.6041 0.0201887 37.6662V37.5006ZM0 37.3351C0 37.3972 0 37.4386 0 37.5006V37.3351ZM0 37.1488C0 37.2109 0 37.2523 0 37.3144V37.1488ZM0 22.0202V36.7763C0 36.8384 0 36.9005 0 36.9626C0 37.0246 0 37.066 0 37.1281V37.1488V37.1695C0 37.2316 0 37.273 0 37.3351V37.3558C0 37.4179 0 37.4593 0 37.5213C0 37.5834 0 37.6248 0 37.6869V37.7076V37.8732C0 37.9973 0.0201887 38.1008 0.0201887 38.225V38.2457L0.0403775 38.3906C0.0403775 38.4526 0.0605662 38.494 0.0605662 38.5561V38.5768V38.5975L0.0807549 38.7424V38.7631V38.7838C0.0807549 38.8459 0.100944 38.8873 0.100944 38.9493C0.100944 39.0114 0.121132 39.0528 0.121132 39.1149V39.1356C0.121132 39.1977 0.141321 39.2391 0.141321 39.3012V39.3219C0.141321 39.384 0.16151 39.4253 0.16151 39.4874V39.5081C0.16151 39.5495 0.181699 39.6116 0.181699 39.653V39.6737V39.6944C0.181699 39.7358 0.201887 39.7772 0.201887 39.8393V39.86L0.242265 40.0048V40.0255V40.0462C0.262454 40.0876 0.262454 40.1497 0.282642 40.1911V40.2118C0.302831 40.2739 0.302831 40.3153 0.32302 40.3774V40.398C0.343208 40.4601 0.343208 40.5015 0.363397 40.5636C0.383586 40.605 0.383586 40.6671 0.403775 40.7085V40.7292C0.423963 40.7706 0.423963 40.8327 0.444152 40.8741V40.8947C0.464341 40.9361 0.464341 40.9982 0.48453 41.0396V41.0603C0.504718 41.1017 0.524907 41.1638 0.524907 41.2052C0.545096 41.2466 0.565285 41.3087 0.585473 41.3501V41.3707C0.605662 41.4121 0.625851 41.4742 0.646039 41.5156V41.5363C0.666228 41.5777 0.686417 41.6398 0.706606 41.6812L0.726794 41.7226C0.746983 41.764 0.767172 41.8054 0.787361 41.8467L0.807549 41.8674L0.868116 41.9916L0.888304 42.033L0.94887 42.1572L0.969059 42.1986L1.00944 42.3021C0.928682 26.2215 23.8227 32.6165 23.7419 17.4258L23.7016 8.21619C13.3044 12.1691 1.6151 15.7494 0 22.0202Z" fill="white"/>
</svg>
