<svg width="169" height="56" viewBox="0 0 169 56" fill="none" xmlns="http://www.w3.org/2000/svg">
<g filter="url(#filter0_d_910_379)">
<mask id="mask0_910_379" style="mask-type:alpha" maskUnits="userSpaceOnUse" x="45" y="6" width="51" height="30">
<rect x="45.5664" y="6.33655" width="49.825" height="29.3611" fill="#D9D9D9"/>
</mask>
<g mask="url(#mask0_910_379)">
<path d="M45.5664 32.6526V8.60034H62.1709V12.7931H50.8686V18.5243H61.0689V22.717H50.8686V32.6526H45.5664Z" fill="white"/>
<path d="M65.6394 32.6526V14.6134H70.8558V32.6526H65.6394ZM68.2599 12.288C67.4843 12.288 66.819 12.0414 66.2639 11.5482C65.7169 11.0471 65.4435 10.4481 65.4435 9.75128C65.4435 9.06228 65.7169 8.47115 66.2639 7.97789C66.819 7.4768 67.4843 7.22626 68.2599 7.22626C69.0354 7.22626 69.6966 7.4768 70.2436 7.97789C70.7987 8.47115 71.0763 9.06228 71.0763 9.75128C71.0763 10.4481 70.7987 11.0471 70.2436 11.5482C69.6966 12.0414 69.0354 12.288 68.2599 12.288Z" fill="white"/>
<path d="M80.251 22.2237V32.6526H75.0345V14.6134H80.0061V17.7961H80.2265C80.6428 16.747 81.3408 15.917 82.3204 15.3063C83.3001 14.6878 84.4878 14.3785 85.8838 14.3785C87.1899 14.3785 88.3288 14.6526 89.3002 15.2006C90.2717 15.7487 91.0268 16.5317 91.5656 17.5495C92.1044 18.5595 92.3738 19.7652 92.3738 21.1667V32.6526H87.1573V22.0593C87.1655 20.9553 86.8716 20.0941 86.2756 19.4756C85.6797 18.8492 84.8593 18.536 83.8143 18.536C83.1123 18.536 82.4919 18.6809 81.9531 18.9705C81.4224 19.2602 81.0061 19.683 80.7041 20.2389C80.4102 20.787 80.2591 21.4486 80.251 22.2237Z" fill="white"/>
<path d="M97.1482 32.6526L97.1463 14.6134H100.183L100.026 28.4247H100.222L108.461 14.6134H111.547L114.88 28.3777H114.893L119.775 14.6134H122.812L115.713 32.6526H112.872L109.392 18.7944H109.098L100.153 32.6526H97.1482Z" fill="white"/>
<path d="M120.405 32.6526L126.633 14.6134H129.523L123.294 32.6526H120.405ZM128.959 11.5599C128.396 11.5599 127.91 11.3759 127.502 11.0079C127.102 10.6399 126.902 10.1976 126.902 9.68081C126.902 9.16407 127.102 8.7217 127.502 8.35371C127.91 7.98572 128.396 7.80173 128.959 7.80173C129.523 7.80173 130.004 7.98572 130.404 8.35371C130.813 8.7217 131.017 9.16407 131.017 9.68081C131.017 10.1976 130.813 10.6399 130.404 11.0079C130.004 11.3759 129.523 11.5599 128.959 11.5599Z" fill="white"/>
<path d="M145.023 18.6535L142.28 19.3581C142.182 18.9353 142.011 18.5282 141.766 18.1367C141.529 17.7374 141.162 17.4125 140.664 17.1619C140.174 16.9036 139.504 16.7744 138.655 16.7744C137.504 16.7744 136.504 17.0288 135.655 17.5377C134.806 18.0388 134.321 18.6769 134.198 19.4521C134.076 20.1332 134.239 20.6774 134.688 21.0845C135.137 21.4917 135.888 21.8244 136.941 22.0828L139.635 22.7405C141.251 23.1398 142.402 23.7387 143.088 24.5373C143.782 25.3281 144.019 26.3577 143.798 27.6261C143.619 28.6596 143.149 29.5835 142.39 30.3977C141.631 31.212 140.659 31.854 139.476 32.3238C138.292 32.7936 136.974 33.0285 135.521 33.0285C133.586 33.0285 132.059 32.6292 130.941 31.8305C129.822 31.0241 129.523 29.7636 129.523 29.7636L131.673 28.1349C132.114 29.0247 132.476 29.3642 133.12 29.8575C133.774 30.3429 134.688 30.5857 135.863 30.5857C137.21 30.5857 138.333 30.3116 139.231 29.7636C140.129 29.2077 140.639 28.5421 140.762 27.767C140.884 27.1328 140.753 26.6043 140.37 26.1815C139.994 25.7588 139.341 25.4417 138.41 25.2303L135.423 24.5256C133.757 24.1263 132.59 23.5156 131.92 22.6935C131.259 21.8714 131.039 20.8379 131.259 19.593C131.439 18.5752 131.896 17.6748 132.631 16.8918C133.374 16.1089 134.304 15.4942 135.423 15.048C136.549 14.6017 137.774 14.3785 139.096 14.3785C140.957 14.3785 142.349 14.77 143.272 15.553C144.194 16.3281 144.778 17.3616 145.023 18.6535Z" fill="white"/>
<path d="M155.104 33.0285C153.3 33.0285 151.81 32.6448 150.634 31.8775C149.459 31.1024 148.638 30.0219 148.173 28.6361C147.708 27.2424 147.634 25.6217 147.953 23.774C148.271 21.9262 148.904 20.2977 149.851 18.8883C150.798 17.4712 151.977 16.3672 153.389 15.5764C154.802 14.7778 156.353 14.3785 158.043 14.3785C159.022 14.3785 159.965 14.5351 160.871 14.8483C161.777 15.1615 162.561 15.6704 163.222 16.3751C163.884 17.0719 164.345 17.9958 164.606 19.1467C164.867 20.2977 164.851 21.7148 164.557 23.3981L164.361 24.5726H149.863L150.255 22.1767H161.814C162.002 21.1589 161.953 20.2507 161.667 19.4521C161.39 18.6535 160.904 18.0232 160.21 17.5612C159.524 17.0993 158.655 16.8683 157.602 16.8683C156.516 16.8683 155.504 17.1502 154.565 17.7139C153.626 18.2698 152.842 18.9745 152.214 19.8279C151.585 20.6735 151.193 21.5347 151.038 22.4116L150.695 24.4786C150.451 25.9741 150.487 27.1641 150.806 28.0489C151.132 28.9336 151.7 29.5717 152.508 29.9632C153.316 30.3469 154.328 30.5387 155.545 30.5387C156.32 30.5387 157.034 30.4369 157.687 30.2333C158.341 30.0219 158.924 29.7087 159.439 29.2938C159.953 28.871 160.386 28.3464 160.737 27.72L163.381 28.4717C162.933 29.3799 162.3 30.1785 161.483 30.8675C160.675 31.5487 159.728 32.0811 158.643 32.4647C157.565 32.8406 156.385 33.0285 155.104 33.0285Z" fill="white"/>
</g>
<mask id="mask1_910_379" style="mask-type:alpha" maskUnits="userSpaceOnUse" x="95" y="6" width="71" height="30">
<rect x="95.3914" y="6.33655" width="70.2888" height="29.3611" fill="#A180FC"/>
</mask>
<g mask="url(#mask1_910_379)">
<path d="M45.5664 32.6526V8.60034H62.1709V12.7931H50.8686V18.5243H61.0689V22.717H50.8686V32.6526H45.5664Z" fill="white"/>
<path d="M65.6394 32.6526V14.6134H70.8558V32.6526H65.6394ZM68.2599 12.288C67.4843 12.288 66.819 12.0414 66.2639 11.5482C65.7169 11.0471 65.4435 10.4481 65.4435 9.75128C65.4435 9.06228 65.7169 8.47115 66.2639 7.97789C66.819 7.4768 67.4843 7.22626 68.2599 7.22626C69.0354 7.22626 69.6966 7.4768 70.2436 7.97789C70.7987 8.47115 71.0763 9.06228 71.0763 9.75128C71.0763 10.4481 70.7987 11.0471 70.2436 11.5482C69.6966 12.0414 69.0354 12.288 68.2599 12.288Z" fill="white"/>
<path d="M80.251 22.2237V32.6526H75.0345V14.6134H80.0061V17.7961H80.2265C80.6428 16.747 81.3408 15.917 82.3204 15.3063C83.3001 14.6878 84.4878 14.3785 85.8838 14.3785C87.1899 14.3785 88.3288 14.6526 89.3002 15.2006C90.2717 15.7487 91.0268 16.5317 91.5656 17.5495C92.1044 18.5595 92.3738 19.7652 92.3738 21.1667V32.6526H87.1573V22.0593C87.1655 20.9553 86.8716 20.0941 86.2756 19.4756C85.6797 18.8492 84.8593 18.536 83.8143 18.536C83.1123 18.536 82.4919 18.6809 81.9531 18.9705C81.4224 19.2602 81.0061 19.683 80.7041 20.2389C80.4102 20.787 80.2591 21.4486 80.251 22.2237Z" fill="white"/>
<path d="M97.1482 32.6526L97.1463 14.6134H100.183L100.026 28.4247H100.222L108.461 14.6134H111.547L114.88 28.3777H114.893L119.775 14.6134H122.812L115.713 32.6526H112.872L109.392 18.7944H109.098L100.153 32.6526H97.1482Z" fill="white"/>
<path d="M120.405 32.6526L126.633 14.6134H129.523L123.294 32.6526H120.405ZM128.959 11.5599C128.396 11.5599 127.91 11.3759 127.502 11.0079C127.102 10.6399 126.902 10.1976 126.902 9.68081C126.902 9.16407 127.102 8.7217 127.502 8.35371C127.91 7.98572 128.396 7.80173 128.959 7.80173C129.523 7.80173 130.004 7.98572 130.404 8.35371C130.813 8.7217 131.017 9.16407 131.017 9.68081C131.017 10.1976 130.813 10.6399 130.404 11.0079C130.004 11.3759 129.523 11.5599 128.959 11.5599Z" fill="white"/>
<path d="M145.023 18.6535L142.28 19.3581C142.182 18.9353 142.011 18.5282 141.766 18.1367C141.529 17.7374 141.162 17.4125 140.664 17.1619C140.174 16.9036 139.504 16.7744 138.655 16.7744C137.504 16.7744 136.504 17.0288 135.655 17.5377C134.806 18.0388 134.321 18.6769 134.198 19.4521C134.076 20.1332 134.239 20.6774 134.688 21.0845C135.137 21.4917 135.888 21.8244 136.941 22.0828L139.635 22.7405C141.251 23.1398 142.402 23.7387 143.088 24.5373C143.782 25.3281 144.019 26.3577 143.798 27.6261C143.619 28.6596 143.149 29.5835 142.39 30.3977C141.631 31.212 140.659 31.854 139.476 32.3238C138.292 32.7936 136.974 33.0285 135.521 33.0285C133.586 33.0285 132.059 32.6292 130.941 31.8305C129.822 31.0241 129.523 29.7636 129.523 29.7636L131.673 28.1349C132.114 29.0247 132.476 29.3642 133.12 29.8575C133.774 30.3429 134.688 30.5857 135.863 30.5857C137.21 30.5857 138.333 30.3116 139.231 29.7636C140.129 29.2077 140.639 28.5421 140.762 27.767C140.884 27.1328 140.753 26.6043 140.37 26.1815C139.994 25.7588 139.341 25.4417 138.41 25.2303L135.423 24.5256C133.757 24.1263 132.59 23.5156 131.92 22.6935C131.259 21.8714 131.039 20.8379 131.259 19.593C131.439 18.5752 131.896 17.6748 132.631 16.8918C133.374 16.1089 134.304 15.4942 135.423 15.048C136.549 14.6017 137.774 14.3785 139.096 14.3785C140.957 14.3785 142.349 14.77 143.272 15.553C144.194 16.3281 144.778 17.3616 145.023 18.6535Z" fill="white"/>
<path d="M155.104 33.0285C153.3 33.0285 151.81 32.6448 150.634 31.8775C149.459 31.1024 148.638 30.0219 148.173 28.6361C147.708 27.2424 147.634 25.6217 147.953 23.774C148.271 21.9262 148.904 20.2977 149.851 18.8883C150.798 17.4712 151.977 16.3672 153.389 15.5764C154.802 14.7778 156.353 14.3785 158.043 14.3785C159.022 14.3785 159.965 14.5351 160.871 14.8483C161.777 15.1615 162.561 15.6704 163.222 16.3751C163.884 17.0719 164.345 17.9958 164.606 19.1467C164.867 20.2977 164.851 21.7148 164.557 23.3981L164.361 24.5726H149.863L150.255 22.1767H161.814C162.002 21.1589 161.953 20.2507 161.667 19.4521C161.39 18.6535 160.904 18.0232 160.21 17.5612C159.524 17.0993 158.655 16.8683 157.602 16.8683C156.516 16.8683 155.504 17.1502 154.565 17.7139C153.626 18.2698 152.842 18.9745 152.214 19.8279C151.585 20.6735 151.193 21.5347 151.038 22.4116L150.695 24.4786C150.451 25.9741 150.487 27.1641 150.806 28.0489C151.132 28.9336 151.7 29.5717 152.508 29.9632C153.316 30.3469 154.328 30.5387 155.545 30.5387C156.32 30.5387 157.034 30.4369 157.687 30.2333C158.341 30.0219 158.924 29.7087 159.439 29.2938C159.953 28.871 160.386 28.3464 160.737 27.72L163.381 28.4717C162.933 29.3799 162.3 30.1785 161.483 30.8675C160.675 31.5487 159.728 32.0811 158.643 32.4647C157.565 32.8406 156.385 33.0285 155.104 33.0285Z" fill="white"/>
</g>
<g clip-path="url(#clip0_910_379)">
<path opacity="0.3" fill-rule="evenodd" clip-rule="evenodd" d="M35.96 5.57211C27.7281 12.1431 6.09314 15.0856 4 23.2451V36.1163C4 39.6004 5.14331 42.4887 8.29182 45.0521C4.28143 31.9643 34.8695 34.0042 35.96 22.8661V5.57211Z" fill="url(#paint0_linear_910_379)"/>
<path opacity="0.5" fill-rule="evenodd" clip-rule="evenodd" d="M27.7016 9.0883L27.6612 0.872101C17.3448 8.09491 4.90849 9.37804 4 22.8924V37.6484C4 39.6352 4.32302 41.4564 5.09019 43.1328C4.92868 27.0936 27.8227 33.4886 27.7419 18.2979L27.7016 9.0883Z" fill="url(#paint1_linear_910_379)"/>
<path fill-rule="evenodd" clip-rule="evenodd" d="M4.26245 40.5251C4.26245 40.5665 4.28264 40.6079 4.28264 40.67ZM4.24226 40.3389C4.24226 40.3803 4.26245 40.4423 4.26245 40.4837ZM4.14132 39.8215C4.14132 39.8836 4.16151 39.925 4.16151 39.987ZM4.08075 39.2834C4.08075 39.3455 4.10094 39.3869 4.10094 39.449ZM4.02019 38.5797C4.02019 38.6418 4.02019 38.6832 4.02019 38.7453ZM4.02019 38.3728C4.02019 38.4349 4.02019 38.4763 4.02019 38.5383ZM4 38.2072C4 38.2693 4 38.3107 4 38.3728ZM4 38.0209C4 38.083 4 38.1244 4 38.1865ZM4 22.8924V37.6484C4 37.7105 4 37.7726 4 37.8347C4 37.8968 4 37.9382 4 38.0003V38.0209V38.0416C4 38.1037 4 38.1451 4 38.2072V38.2279C4 38.29 4 38.3314 4 38.3935C4 38.4556 4 38.497 4 38.559V38.5797V38.7453C4 38.8695 4.02019 38.973 4.02019 39.0971V39.1178L4.04038 39.2627C4.04038 39.3248 4.06057 39.3662 4.06057 39.4283V39.449V39.4696L4.08075 39.6145V39.6352V39.6559C4.08075 39.718 4.10094 39.7594 4.10094 39.8215C4.10094 39.8836 4.12113 39.925 4.12113 39.987V40.0077C4.12113 40.0698 4.14132 40.1112 4.14132 40.1733V40.194C4.14132 40.2561 4.16151 40.2975 4.16151 40.3596V40.3803C4.16151 40.4217 4.1817 40.4837 4.1817 40.5251V40.5458V40.5665C4.1817 40.6079 4.20189 40.6493 4.20189 40.7114V40.7321L4.24226 40.877V40.8977V40.9184C4.26245 40.9597 4.26245 41.0218 4.28264 41.0632V41.0839C4.30283 41.146 4.30283 41.1874 4.32302 41.2495V41.2702C4.34321 41.3323 4.34321 41.3737 4.3634 41.4357C4.38359 41.4771 4.38359 41.5392 4.40377 41.5806V41.6013C4.42396 41.6427 4.42396 41.7048 4.44415 41.7462V41.7669C4.46434 41.8083 4.46434 41.8704 4.48453 41.9117V41.9324C4.50472 41.9738 4.52491 42.0359 4.52491 42.0773C4.5451 42.1187 4.56528 42.1808 4.58547 42.2222V42.2429C4.60566 42.2843 4.62585 42.3464 4.64604 42.3877V42.4084C4.66623 42.4498 4.68642 42.5119 4.70661 42.5533L4.72679 42.5947C4.74698 42.6361 4.76717 42.6775 4.78736 42.7189L4.80755 42.7396L4.86812 42.8637L4.8883 42.9051L4.94887 43.0293L4.96906 43.0707L5.00944 43.1742C4.92868 27.0936 27.8227 33.4886 27.7419 18.2979L27.7016 9.08832C17.3044 13.0412 5.6151 16.6216 4 22.8924Z" fill="url(#paint2_linear_910_379)"/>
</g>
</g>
<defs>
<filter id="filter0_d_910_379" x="0" y="0.872101" width="168.791" height="55" filterUnits="userSpaceOnUse" color-interpolation-filters="sRGB">
<feFlood flood-opacity="0" result="BackgroundImageFix"/>
<feColorMatrix in="SourceAlpha" type="matrix" values="0 0 0 0 0 0 0 0 0 0 0 0 0 0 0 0 0 0 127 0" result="hardAlpha"/>
<feOffset dy="4"/>
<feGaussianBlur stdDeviation="2"/>
<feComposite in2="hardAlpha" operator="out"/>
<feColorMatrix type="matrix" values="0 0 0 0 0 0 0 0 0 0 0 0 0 0 0 0 0 0 0.25 0"/>
<feBlend mode="normal" in2="BackgroundImageFix" result="effect1_dropShadow_910_379"/>
<feBlend mode="normal" in="SourceGraphic" in2="effect1_dropShadow_910_379" result="shape"/>
</filter>
<linearGradient id="paint0_linear_910_379" x1="-26.5" y1="45" x2="36" y2="6.00001" gradientUnits="userSpaceOnUse">
<stop stop-color="#6549D5"/>
<stop offset="0.505208" stop-color="#FB5343"/>
<stop offset="1" stop-color="#059DFF"/>
</linearGradient>
<linearGradient id="paint1_linear_910_379" x1="4" y1="22.3378" x2="51" y2="-17.5" gradientUnits="userSpaceOnUse">
<stop stop-color="#6549D5"/>
<stop offset="0.505208" stop-color="#FB5343"/>
<stop offset="1" stop-color="#059DFF"/>
</linearGradient>
<linearGradient id="paint2_linear_910_379" x1="3.99999" y1="26.4018" x2="52" y2="-6.00001" gradientUnits="userSpaceOnUse">
<stop stop-color="#6549D5"/>
<stop offset="0.505208" stop-color="#FB5343"/>
<stop offset="1" stop-color="#059DFF"/>
</linearGradient>
<clipPath id="clip0_910_379">
<rect width="36.6829" height="47" fill="white" transform="translate(4 0.872101)"/>
</clipPath>
</defs>
</svg>
